# xmcd
#
# Track frame offsets: 
#        150
#        13053
#        33035
#        46963
#        62451
#        77768
#        97401
#        109807
#        124446
#        141305
#
# Disc length: 2074 seconds
#
# Revision: 0
# Processed by: cddbd v1.5.1PL0 Copyright (c) Steve Scherf et al.
# Submitted via: ExactAudioCopy v0.95b2
#
DISCID=8808180a
DTITLE=The Doc Marshalls - No Kind of Life
DYEAR=2005
DGENRE=Country
TTITLE0=Woman Knows No Heartache
TTITLE1=No Kind of Life
TTITLE2=Feel No Pain
TTITLE3=N'Oublie-Moi Pas
TTITLE4=The Next Best Thing
TTITLE5=Half Asleep
TTITLE6=Reckless Heart
TTITLE7=Bon a Rien
TTITLE8=Je Suis Gone
TTITLE9=But I Heard
EXTD=
EXTT0=
EXTT1=
EXTT2=
EXTT3=
EXTT4=
EXTT5=
EXTT6=
EXTT7=
EXTT8=
EXTT9=
PLAYORDER=
